<svg xmlns="http://www.w3.org/2000/svg" viewBox="0 0 64 64"><title>Artboard-1</title><g id="Alarm"><path d="M28,13h8l-.0015,5.39a20.7628,20.7628,0,0,0-7.999,0Z" style="fill:#ffb125"/><path d="M10.08,24.15l7.07-7.07,3.96,3.96a21.0437,21.0437,0,0,0-7.07,7.07h0Z" style="fill:#ffb125"/><path d="M49.96,28.11a21.0437,21.0437,0,0,0-7.07-7.07l3.96-3.96,7.07,7.07Z" style="fill:#ffb125"/><path d="M11.2451,63a4.2435,4.2435,0,0,1-3.0005-7.2446L14.07,49.93a20.6821,20.6821,0,0,0,5.8,6.2l-5.6294,5.6294A4.2068,4.2068,0,0,1,11.2451,63Z" style="fill:#ffb125"/><path d="M52.7549,63A4.2048,4.2048,0,0,1,49.76,61.7593L44.13,56.13a20.6821,20.6821,0,0,0,5.8-6.2l5.8252,5.8252A4.2435,4.2435,0,0,1,52.7549,63Z" style="fill:#ffb125"/><circle cx="32" cy="39" r="21" style="fill:#fcd354"/><circle cx="32" cy="39" r="17" style="fill:#ffb125"/><path d="M44.728,14.9585A8,8,0,1,1,56.0415,26.272h0Z" style="fill:#fcd354"/><path d="M7.9585,26.272A8,8,0,1,1,19.272,14.9585Z" style="fill:#fcd354"/><rect x="25" y="7" width="14" height="6" style="fill:#fcd354"/><path d="M50,39A18,18,0,1,0,32,57,18.02,18.02,0,0,0,50,39ZM16,39A16,16,0,1,1,32,55,16.0183,16.0183,0,0,1,16,39Z" style="fill:#231e23"/><path d="M51.1768,49.7628a21.9288,21.9288,0,0,0,.0255-21.4812L53.92,25.5642l1.4148,1.4148a.9995.9995,0,0,0,1.414,0,8.9938,8.9938,0,0,0-5.3061-15.2961l-6.27-4.3841a6.7033,6.7033,0,0,1-2.1514-2.4922A8.6489,8.6489,0,0,0,35.2441,0H28.7559a8.6489,8.6489,0,0,0-7.7774,4.8066,6.7062,6.7062,0,0,1-2.1518,2.4927L12.5574,11.683A8.9955,8.9955,0,0,0,7.2515,26.979a.9995.9995,0,0,0,1.414,0L10.08,25.5642l2.7174,2.7174a21.9288,21.9288,0,0,0,.0255,21.4812L7.5376,55.0483a5.2426,5.2426,0,1,0,7.41,7.418l5.0456-5.0456a21.9274,21.9274,0,0,0,24.0132,0l5.0456,5.0456a5.2426,5.2426,0,0,0,7.41-7.418Zm-1.0489-23.235a23.7255,23.7255,0,0,0-5.6557-5.6557L46.85,18.4944,52.5056,24.15Zm7.2569-5.9126a6.9456,6.9456,0,0,1-1.3931,4.1929l-9.8-9.8a7.0011,7.0011,0,0,1,11.1929,5.6069ZM19.9727,8.9385a8.7166,8.7166,0,0,0,2.7949-3.2373A6.6593,6.6593,0,0,1,28.7559,2h6.4882a6.6593,6.6593,0,0,1,5.9883,3.7012A8.7138,8.7138,0,0,0,44.0269,8.938l4.2108,2.9444a8.9322,8.9322,0,0,0-4.2167,2.3691,1,1,0,0,0,0,1.414L45.4358,17.08l-2.7174,2.7174A21.8422,21.8422,0,0,0,37,17.58V14h2a1,1,0,0,0,1-1V7a1,1,0,0,0-1-1H25a1,1,0,0,0-1,1v6a1,1,0,0,0,1,1h2v3.58a21.8422,21.8422,0,0,0-5.7184,2.2176L18.5642,17.08l1.4148-1.4148a1,1,0,0,0,0-1.414,8.9322,8.9322,0,0,0-4.2167-2.3691ZM32,17a24.3584,24.3584,0,0,0-3,.2061V14h6v3.2061A24.3584,24.3584,0,0,0,32,17Zm-6-5V8H38v4ZM8.0083,24.8081a7.0016,7.0016,0,0,1,9.8-9.8Zm5.8638,1.72L11.4944,24.15,17.15,18.4944l2.3777,2.3777A23.742,23.742,0,0,0,13.8721,26.5278Zm4.4726,29.7129-4.811,4.8115a3.2427,3.2427,0,0,1-4.582-4.59l4.9516-4.9512A23.2511,23.2511,0,0,0,18.3447,56.2407ZM12,39A20,20,0,1,1,32,59,20.0183,20.0183,0,0,1,12,39ZM55.7515,59.9976a3.241,3.241,0,0,1-5.2852,1.0546l-4.811-4.8115a23.3726,23.3726,0,0,0,4.4414-4.7295l4.9516,4.9512A3.1994,3.1994,0,0,1,55.7515,59.9976Z" style="fill:#231e23"/><path d="M35.293,43.707a1,1,0,0,0,1.414-1.414L33,38.5859V33a1,1,0,0,0-2,0v6a1,1,0,0,0,.293.707Z" style="fill:#231e23"/><path d="M32,28a1,1,0,0,0,1-1V25a1,1,0,0,0-2,0v2A1,1,0,0,0,32,28Z" style="fill:#231e23"/><path d="M40.4854,31.5146a.9967.9967,0,0,0,.707-.2929l1.414-1.4141a1,1,0,0,0-1.414-1.414l-1.4141,1.414a1,1,0,0,0,.7071,1.707Z" style="fill:#231e23"/><path d="M44,40h2a1,1,0,0,0,0-2H44a1,1,0,0,0,0,2Z" style="fill:#231e23"/><path d="M41.1924,49.6064a1,1,0,0,0,1.414-1.414l-1.414-1.4141a1,1,0,1,0-1.4141,1.4141Z" style="fill:#231e23"/><path d="M33,53V51a1,1,0,0,0-2,0v2a1,1,0,0,0,2,0Z" style="fill:#231e23"/><path d="M22.8076,46.7783l-1.414,1.4141a1,1,0,1,0,1.414,1.414l1.4141-1.414a1,1,0,1,0-1.4141-1.4141Z" style="fill:#231e23"/><path d="M20,38H18a1,1,0,0,0,0,2h2a1,1,0,0,0,0-2Z" style="fill:#231e23"/><path d="M22.8076,28.3936a1,1,0,0,0-1.414,1.414l1.414,1.4141a1,1,0,0,0,1.4141-1.4141Z" style="fill:#231e23"/></g></svg>